<mxfile host="app.diagrams.net" modified="2021-10-24T18:59:16.488Z" agent="5.0 (Windows)" etag="11qnmrppJiHulcnfR2wV" version="15.5.8" type="github">
  <diagram id="HXzt17Rm_zem7e5teo9B" name="Page-1">
    <mxGraphModel dx="2568" dy="1523" grid="1" gridSize="10" guides="1" tooltips="1" connect="1" arrows="1" fold="1" page="1" pageScale="1" pageWidth="850" pageHeight="1100" math="0" shadow="0">
      <root>
        <mxCell id="0" />
        <mxCell id="1" parent="0" />
        <mxCell id="_rh--6CCZ1OBjoR3TniN-90" value="&lt;div&gt;Email&lt;/div&gt;&lt;div&gt;11&lt;/div&gt;" style="shape=step;perimeter=stepPerimeter;whiteSpace=wrap;html=1;fixedSize=1;fontFamily=Courier New;fontSize=20;" vertex="1" parent="1">
          <mxGeometry x="-810" y="860" width="220" height="80" as="geometry" />
        </mxCell>
        <mxCell id="_rh--6CCZ1OBjoR3TniN-2" value="&lt;h2&gt;&lt;font face=&quot;Courier New&quot;&gt;Oracle Fusion SAAS&lt;/font&gt;&lt;/h2&gt;" style="rounded=0;whiteSpace=wrap;html=1;fillColor=#ffe6cc;strokeColor=#d79b00;" vertex="1" parent="1">
          <mxGeometry x="-1150" y="185" width="150" height="310" as="geometry" />
        </mxCell>
        <mxCell id="_rh--6CCZ1OBjoR3TniN-22" style="edgeStyle=orthogonalEdgeStyle;rounded=0;orthogonalLoop=1;jettySize=auto;html=1;fontFamily=Courier New;fontSize=20;" edge="1" parent="1" source="_rh--6CCZ1OBjoR3TniN-4" target="_rh--6CCZ1OBjoR3TniN-21">
          <mxGeometry relative="1" as="geometry">
            <mxPoint x="130" y="660" as="targetPoint" />
            <Array as="points">
              <mxPoint x="180" y="520" />
              <mxPoint x="130" y="520" />
              <mxPoint x="130" y="635" />
            </Array>
          </mxGeometry>
        </mxCell>
        <mxCell id="_rh--6CCZ1OBjoR3TniN-61" style="edgeStyle=orthogonalEdgeStyle;rounded=0;orthogonalLoop=1;jettySize=auto;html=1;fontFamily=Courier New;fontSize=20;entryX=0.906;entryY=0.425;entryDx=0;entryDy=0;entryPerimeter=0;" edge="1" parent="1" source="_rh--6CCZ1OBjoR3TniN-4" target="_rh--6CCZ1OBjoR3TniN-58">
          <mxGeometry relative="1" as="geometry">
            <mxPoint x="-610" y="720" as="targetPoint" />
            <Array as="points">
              <mxPoint x="290" y="355" />
              <mxPoint x="290" y="910" />
              <mxPoint x="-270" y="910" />
              <mxPoint x="-270" y="750" />
              <mxPoint x="-676" y="750" />
            </Array>
          </mxGeometry>
        </mxCell>
        <mxCell id="_rh--6CCZ1OBjoR3TniN-4" value="&lt;h2&gt;&lt;font face=&quot;Courier New&quot;&gt;URA-System &lt;/font&gt;&lt;br&gt;&lt;/h2&gt;" style="rounded=0;whiteSpace=wrap;html=1;fillColor=#d5e8d4;strokeColor=#82b366;" vertex="1" parent="1">
          <mxGeometry x="90" y="230" width="180" height="220" as="geometry" />
        </mxCell>
        <mxCell id="_rh--6CCZ1OBjoR3TniN-77" style="edgeStyle=orthogonalEdgeStyle;rounded=0;orthogonalLoop=1;jettySize=auto;html=1;entryX=0.96;entryY=0.7;entryDx=0;entryDy=0;entryPerimeter=0;fontFamily=Courier New;fontSize=20;" edge="1" parent="1" source="_rh--6CCZ1OBjoR3TniN-6" target="_rh--6CCZ1OBjoR3TniN-75">
          <mxGeometry relative="1" as="geometry" />
        </mxCell>
        <mxCell id="_rh--6CCZ1OBjoR3TniN-6" value="" style="shadow=0;dashed=0;html=1;strokeColor=none;fillColor=#4495D1;labelPosition=center;verticalLabelPosition=bottom;verticalAlign=top;align=center;outlineConnect=0;shape=mxgraph.veeam.2d.report;fontFamily=Courier New;" vertex="1" parent="1">
          <mxGeometry x="-640" y="90" width="80" height="70" as="geometry" />
        </mxCell>
        <mxCell id="_rh--6CCZ1OBjoR3TniN-14" style="edgeStyle=orthogonalEdgeStyle;rounded=0;orthogonalLoop=1;jettySize=auto;html=1;entryX=0;entryY=0.5;entryDx=0;entryDy=0;fontFamily=Courier New;fontSize=20;" edge="1" parent="1" source="_rh--6CCZ1OBjoR3TniN-7" target="_rh--6CCZ1OBjoR3TniN-8">
          <mxGeometry relative="1" as="geometry" />
        </mxCell>
        <mxCell id="_rh--6CCZ1OBjoR3TniN-31" style="edgeStyle=orthogonalEdgeStyle;rounded=0;orthogonalLoop=1;jettySize=auto;html=1;fontFamily=Courier New;fontSize=20;startArrow=none;" edge="1" parent="1" source="_rh--6CCZ1OBjoR3TniN-68" target="_rh--6CCZ1OBjoR3TniN-6">
          <mxGeometry relative="1" as="geometry">
            <Array as="points">
              <mxPoint x="-610" y="230" />
            </Array>
          </mxGeometry>
        </mxCell>
        <mxCell id="_rh--6CCZ1OBjoR3TniN-7" value="1" style="shape=step;perimeter=stepPerimeter;whiteSpace=wrap;html=1;fixedSize=1;fontFamily=Courier New;fontSize=20;" vertex="1" parent="1">
          <mxGeometry x="-1000" y="310" width="120" height="60" as="geometry" />
        </mxCell>
        <mxCell id="_rh--6CCZ1OBjoR3TniN-15" style="edgeStyle=orthogonalEdgeStyle;rounded=0;orthogonalLoop=1;jettySize=auto;html=1;fontFamily=Courier New;fontSize=20;" edge="1" parent="1" source="_rh--6CCZ1OBjoR3TniN-8" target="_rh--6CCZ1OBjoR3TniN-4">
          <mxGeometry relative="1" as="geometry" />
        </mxCell>
        <mxCell id="_rh--6CCZ1OBjoR3TniN-8" value="2" style="shape=step;perimeter=stepPerimeter;whiteSpace=wrap;html=1;fixedSize=1;fontFamily=Courier New;fontSize=20;" vertex="1" parent="1">
          <mxGeometry x="-150" y="240" width="120" height="60" as="geometry" />
        </mxCell>
        <mxCell id="_rh--6CCZ1OBjoR3TniN-9" value="" style="sketch=0;outlineConnect=0;fontColor=#232F3E;gradientColor=none;fillColor=#FF4F8B;strokeColor=none;dashed=0;verticalLabelPosition=bottom;verticalAlign=top;align=center;html=1;fontSize=12;fontStyle=0;aspect=fixed;pointerEvents=1;shape=mxgraph.aws4.event;fontFamily=Courier New;" vertex="1" parent="1">
          <mxGeometry x="-1000" y="300" width="40" height="40" as="geometry" />
        </mxCell>
        <mxCell id="_rh--6CCZ1OBjoR3TniN-17" style="edgeStyle=orthogonalEdgeStyle;rounded=0;orthogonalLoop=1;jettySize=auto;html=1;entryX=0;entryY=0.5;entryDx=0;entryDy=0;fontFamily=Courier New;fontSize=20;" edge="1" parent="1" source="_rh--6CCZ1OBjoR3TniN-10" target="_rh--6CCZ1OBjoR3TniN-16">
          <mxGeometry relative="1" as="geometry" />
        </mxCell>
        <mxCell id="_rh--6CCZ1OBjoR3TniN-10" value="3" style="shape=step;perimeter=stepPerimeter;whiteSpace=wrap;html=1;fixedSize=1;fontFamily=Courier New;fontSize=20;" vertex="1" parent="1">
          <mxGeometry x="-1010" y="400" width="120" height="60" as="geometry" />
        </mxCell>
        <mxCell id="_rh--6CCZ1OBjoR3TniN-11" value="" style="sketch=0;outlineConnect=0;fontColor=#232F3E;gradientColor=none;fillColor=#FF4F8B;strokeColor=none;dashed=0;verticalLabelPosition=bottom;verticalAlign=top;align=center;html=1;fontSize=12;fontStyle=0;aspect=fixed;pointerEvents=1;shape=mxgraph.aws4.event;fontFamily=Courier New;" vertex="1" parent="1">
          <mxGeometry x="-1010" y="395" width="40" height="40" as="geometry" />
        </mxCell>
        <mxCell id="_rh--6CCZ1OBjoR3TniN-24" style="edgeStyle=orthogonalEdgeStyle;rounded=0;orthogonalLoop=1;jettySize=auto;html=1;fontFamily=Courier New;fontSize=20;" edge="1" parent="1" source="_rh--6CCZ1OBjoR3TniN-16">
          <mxGeometry relative="1" as="geometry">
            <mxPoint x="-140" y="280" as="targetPoint" />
            <Array as="points">
              <mxPoint x="-200" y="420" />
              <mxPoint x="-200" y="280" />
            </Array>
          </mxGeometry>
        </mxCell>
        <mxCell id="_rh--6CCZ1OBjoR3TniN-27" style="edgeStyle=orthogonalEdgeStyle;rounded=0;orthogonalLoop=1;jettySize=auto;html=1;entryX=0;entryY=0.5;entryDx=0;entryDy=0;fontFamily=Courier New;fontSize=20;" edge="1" parent="1" source="_rh--6CCZ1OBjoR3TniN-16" target="_rh--6CCZ1OBjoR3TniN-25">
          <mxGeometry relative="1" as="geometry" />
        </mxCell>
        <mxCell id="_rh--6CCZ1OBjoR3TniN-16" value="4" style="shape=step;perimeter=stepPerimeter;whiteSpace=wrap;html=1;fixedSize=1;fontFamily=Courier New;fontSize=20;" vertex="1" parent="1">
          <mxGeometry x="-420" y="380" width="170" height="70" as="geometry" />
        </mxCell>
        <mxCell id="_rh--6CCZ1OBjoR3TniN-19" value="&lt;div&gt;Manual&lt;/div&gt;&lt;div&gt;Invoice&lt;/div&gt;" style="text;html=1;strokeColor=none;fillColor=none;align=center;verticalAlign=middle;whiteSpace=wrap;rounded=0;fontFamily=Courier New;fontSize=20;" vertex="1" parent="1">
          <mxGeometry x="-560" y="270" width="120" height="60" as="geometry" />
        </mxCell>
        <mxCell id="_rh--6CCZ1OBjoR3TniN-20" value="CM/DM" style="text;html=1;strokeColor=none;fillColor=none;align=center;verticalAlign=middle;whiteSpace=wrap;rounded=0;fontFamily=Courier New;fontSize=20;" vertex="1" parent="1">
          <mxGeometry x="-380" y="370" width="90" height="50" as="geometry" />
        </mxCell>
        <mxCell id="_rh--6CCZ1OBjoR3TniN-21" value="OracleDBaas" style="shape=cylinder3;whiteSpace=wrap;html=1;boundedLbl=1;backgroundOutline=1;size=15;fontFamily=Courier New;fontSize=20;fillColor=#ffe6cc;strokeColor=#d79b00;" vertex="1" parent="1">
          <mxGeometry x="-90" y="580" width="160" height="110" as="geometry" />
        </mxCell>
        <mxCell id="_rh--6CCZ1OBjoR3TniN-30" style="edgeStyle=orthogonalEdgeStyle;rounded=0;orthogonalLoop=1;jettySize=auto;html=1;fontFamily=Courier New;fontSize=20;" edge="1" parent="1" source="_rh--6CCZ1OBjoR3TniN-25" target="_rh--6CCZ1OBjoR3TniN-4">
          <mxGeometry relative="1" as="geometry">
            <mxPoint x="80" y="370" as="targetPoint" />
            <Array as="points">
              <mxPoint x="30" y="475" />
              <mxPoint x="30" y="370" />
            </Array>
          </mxGeometry>
        </mxCell>
        <mxCell id="_rh--6CCZ1OBjoR3TniN-25" value="5" style="shape=step;perimeter=stepPerimeter;whiteSpace=wrap;html=1;fixedSize=1;fontFamily=Courier New;fontSize=20;" vertex="1" parent="1">
          <mxGeometry x="-130" y="440" width="120" height="70" as="geometry" />
        </mxCell>
        <mxCell id="_rh--6CCZ1OBjoR3TniN-28" value="CM" style="text;html=1;strokeColor=none;fillColor=none;align=center;verticalAlign=middle;whiteSpace=wrap;rounded=0;fontFamily=Courier New;fontSize=20;" vertex="1" parent="1">
          <mxGeometry x="-100" y="405" width="60" height="30" as="geometry" />
        </mxCell>
        <mxCell id="_rh--6CCZ1OBjoR3TniN-29" value="Inv/DM" style="text;html=1;strokeColor=none;fillColor=none;align=center;verticalAlign=middle;whiteSpace=wrap;rounded=0;fontFamily=Courier New;fontSize=20;" vertex="1" parent="1">
          <mxGeometry x="-130" y="200" width="80" height="30" as="geometry" />
        </mxCell>
        <mxCell id="_rh--6CCZ1OBjoR3TniN-36" value="BIP" style="text;html=1;strokeColor=none;fillColor=none;align=center;verticalAlign=middle;whiteSpace=wrap;rounded=0;fontFamily=Courier New;fontSize=20;" vertex="1" parent="1">
          <mxGeometry x="-570" y="80" width="60" height="30" as="geometry" />
        </mxCell>
        <mxCell id="_rh--6CCZ1OBjoR3TniN-43" style="edgeStyle=orthogonalEdgeStyle;rounded=0;orthogonalLoop=1;jettySize=auto;html=1;entryX=0.052;entryY=1.007;entryDx=0;entryDy=0;entryPerimeter=0;fontFamily=Courier New;fontSize=20;" edge="1" parent="1" target="_rh--6CCZ1OBjoR3TniN-4">
          <mxGeometry relative="1" as="geometry">
            <mxPoint x="-201.375" y="530" as="sourcePoint" />
            <Array as="points">
              <mxPoint x="98" y="530" />
            </Array>
          </mxGeometry>
        </mxCell>
        <mxCell id="_rh--6CCZ1OBjoR3TniN-47" style="edgeStyle=orthogonalEdgeStyle;rounded=0;orthogonalLoop=1;jettySize=auto;html=1;fontFamily=Courier New;fontSize=20;entryX=0;entryY=0.5;entryDx=0;entryDy=0;exitX=1;exitY=0.5;exitDx=0;exitDy=0;" edge="1" parent="1" source="_rh--6CCZ1OBjoR3TniN-44" target="_rh--6CCZ1OBjoR3TniN-46">
          <mxGeometry relative="1" as="geometry">
            <mxPoint x="-450" y="670" as="targetPoint" />
            <mxPoint x="-380" y="560" as="sourcePoint" />
            <Array as="points">
              <mxPoint x="-470" y="670" />
              <mxPoint x="-390" y="670" />
            </Array>
          </mxGeometry>
        </mxCell>
        <mxCell id="_rh--6CCZ1OBjoR3TniN-44" value="Retry" style="shape=step;perimeter=stepPerimeter;whiteSpace=wrap;html=1;fixedSize=1;fontFamily=Courier New;fontSize=20;" vertex="1" parent="1">
          <mxGeometry x="-690" y="480" width="160" height="80" as="geometry" />
        </mxCell>
        <mxCell id="_rh--6CCZ1OBjoR3TniN-45" value="" style="html=1;verticalLabelPosition=bottom;align=center;labelBackgroundColor=#ffffff;verticalAlign=top;strokeWidth=2;strokeColor=#0080F0;shadow=0;dashed=0;shape=mxgraph.ios7.icons.gauge;fontFamily=Courier New;fontSize=20;" vertex="1" parent="1">
          <mxGeometry x="-652.4" y="470" width="32.4" height="31.5" as="geometry" />
        </mxCell>
        <mxCell id="_rh--6CCZ1OBjoR3TniN-56" style="edgeStyle=orthogonalEdgeStyle;rounded=0;orthogonalLoop=1;jettySize=auto;html=1;entryX=0.211;entryY=0.991;entryDx=0;entryDy=0;entryPerimeter=0;fontFamily=Courier New;fontSize=20;" edge="1" parent="1" source="_rh--6CCZ1OBjoR3TniN-46" target="_rh--6CCZ1OBjoR3TniN-21">
          <mxGeometry relative="1" as="geometry" />
        </mxCell>
        <mxCell id="_rh--6CCZ1OBjoR3TniN-46" value="T106,T108" style="shape=step;perimeter=stepPerimeter;whiteSpace=wrap;html=1;fixedSize=1;fontFamily=Courier New;fontSize=20;" vertex="1" parent="1">
          <mxGeometry x="-500" y="630" width="160" height="80" as="geometry" />
        </mxCell>
        <mxCell id="_rh--6CCZ1OBjoR3TniN-48" value="6" style="text;html=1;strokeColor=none;fillColor=none;align=center;verticalAlign=middle;whiteSpace=wrap;rounded=0;fontFamily=Courier New;fontSize=20;" vertex="1" parent="1">
          <mxGeometry x="-610" y="480" width="60" height="30" as="geometry" />
        </mxCell>
        <mxCell id="_rh--6CCZ1OBjoR3TniN-49" value="7" style="text;html=1;strokeColor=none;fillColor=none;align=center;verticalAlign=middle;whiteSpace=wrap;rounded=0;fontFamily=Courier New;fontSize=20;" vertex="1" parent="1">
          <mxGeometry x="-485" y="630" width="60" height="30" as="geometry" />
        </mxCell>
        <mxCell id="_rh--6CCZ1OBjoR3TniN-53" value="" style="endArrow=classic;startArrow=classic;html=1;rounded=0;fontFamily=Courier New;fontSize=20;exitX=1;exitY=0.5;exitDx=0;exitDy=0;" edge="1" parent="1" source="_rh--6CCZ1OBjoR3TniN-44" target="_rh--6CCZ1OBjoR3TniN-21">
          <mxGeometry width="50" height="50" relative="1" as="geometry">
            <mxPoint x="-500" y="520" as="sourcePoint" />
            <mxPoint x="-420" y="610" as="targetPoint" />
            <Array as="points">
              <mxPoint x="-410" y="520" />
              <mxPoint x="-410" y="610" />
              <mxPoint x="-240" y="610" />
              <mxPoint x="-240" y="640" />
            </Array>
          </mxGeometry>
        </mxCell>
        <mxCell id="_rh--6CCZ1OBjoR3TniN-55" value="" style="endArrow=none;dashed=1;html=1;rounded=0;fontFamily=Courier New;fontSize=20;exitX=1;exitY=0.5;exitDx=0;exitDy=0;entryX=0.907;entryY=1.032;entryDx=0;entryDy=0;entryPerimeter=0;" edge="1" parent="1" source="_rh--6CCZ1OBjoR3TniN-46" target="_rh--6CCZ1OBjoR3TniN-4">
          <mxGeometry width="50" height="50" relative="1" as="geometry">
            <mxPoint x="-140" y="720" as="sourcePoint" />
            <mxPoint x="290" y="770" as="targetPoint" />
            <Array as="points">
              <mxPoint x="-180" y="670" />
              <mxPoint x="-180" y="720" />
              <mxPoint x="140" y="720" />
              <mxPoint x="226" y="720" />
            </Array>
          </mxGeometry>
        </mxCell>
        <mxCell id="_rh--6CCZ1OBjoR3TniN-60" style="edgeStyle=orthogonalEdgeStyle;rounded=0;orthogonalLoop=1;jettySize=auto;html=1;fontFamily=Courier New;fontSize=20;" edge="1" parent="1" source="_rh--6CCZ1OBjoR3TniN-58" target="_rh--6CCZ1OBjoR3TniN-2">
          <mxGeometry relative="1" as="geometry" />
        </mxCell>
        <mxCell id="_rh--6CCZ1OBjoR3TniN-58" value="" style="shape=dataStorage;whiteSpace=wrap;html=1;fixedSize=1;fontFamily=Courier New;fontSize=20;" vertex="1" parent="1">
          <mxGeometry x="-830" y="710" width="210" height="90" as="geometry" />
        </mxCell>
        <mxCell id="_rh--6CCZ1OBjoR3TniN-59" value="&lt;div&gt;Fusion&lt;/div&gt;&lt;div&gt;Update&lt;/div&gt;" style="text;html=1;strokeColor=none;fillColor=none;align=center;verticalAlign=middle;whiteSpace=wrap;rounded=0;fontFamily=Courier New;fontSize=20;" vertex="1" parent="1">
          <mxGeometry x="-780" y="740" width="170" height="50" as="geometry" />
        </mxCell>
        <mxCell id="_rh--6CCZ1OBjoR3TniN-62" value="" style="endArrow=none;dashed=1;html=1;rounded=0;fontFamily=Courier New;fontSize=20;exitX=0.75;exitY=0;exitDx=0;exitDy=0;" edge="1" parent="1" source="_rh--6CCZ1OBjoR3TniN-10">
          <mxGeometry width="50" height="50" relative="1" as="geometry">
            <mxPoint x="-560" y="400" as="sourcePoint" />
            <mxPoint x="-640" y="90" as="targetPoint" />
            <Array as="points">
              <mxPoint x="-810" y="400" />
            </Array>
          </mxGeometry>
        </mxCell>
        <mxCell id="_rh--6CCZ1OBjoR3TniN-65" value="8" style="text;html=1;strokeColor=none;fillColor=none;align=center;verticalAlign=middle;whiteSpace=wrap;rounded=0;fontFamily=Courier New;fontSize=20;" vertex="1" parent="1">
          <mxGeometry x="-810" y="720" width="60" height="30" as="geometry" />
        </mxCell>
        <mxCell id="_rh--6CCZ1OBjoR3TniN-68" value="" style="shape=step;perimeter=stepPerimeter;whiteSpace=wrap;html=1;fixedSize=1;fontFamily=Courier New;fontSize=20;" vertex="1" parent="1">
          <mxGeometry x="-1000" y="190" width="230" height="80" as="geometry" />
        </mxCell>
        <mxCell id="_rh--6CCZ1OBjoR3TniN-71" value="9" style="text;html=1;strokeColor=none;fillColor=none;align=center;verticalAlign=middle;whiteSpace=wrap;rounded=0;fontFamily=Courier New;fontSize=20;" vertex="1" parent="1">
          <mxGeometry x="-970" y="200" width="60" height="30" as="geometry" />
        </mxCell>
        <mxCell id="_rh--6CCZ1OBjoR3TniN-72" value="Auto Invoice" style="text;html=1;strokeColor=none;fillColor=none;align=center;verticalAlign=middle;whiteSpace=wrap;rounded=0;fontFamily=Courier New;fontSize=20;" vertex="1" parent="1">
          <mxGeometry x="-880" y="215" width="60" height="30" as="geometry" />
        </mxCell>
        <mxCell id="_rh--6CCZ1OBjoR3TniN-73" value="" style="sketch=0;outlineConnect=0;fontColor=#232F3E;gradientColor=none;fillColor=#FF4F8B;strokeColor=none;dashed=0;verticalLabelPosition=bottom;verticalAlign=top;align=center;html=1;fontSize=12;fontStyle=0;aspect=fixed;pointerEvents=1;shape=mxgraph.aws4.event;fontFamily=Courier New;" vertex="1" parent="1">
          <mxGeometry x="-1010" y="200" width="50" height="50" as="geometry" />
        </mxCell>
        <mxCell id="_rh--6CCZ1OBjoR3TniN-74" style="edgeStyle=orthogonalEdgeStyle;rounded=0;orthogonalLoop=1;jettySize=auto;html=1;exitX=0;exitY=0.5;exitDx=0;exitDy=0;entryX=0;entryY=0.25;entryDx=0;entryDy=0;fontFamily=Courier New;fontSize=20;" edge="1" parent="1" source="_rh--6CCZ1OBjoR3TniN-68" target="_rh--6CCZ1OBjoR3TniN-68">
          <mxGeometry relative="1" as="geometry" />
        </mxCell>
        <mxCell id="_rh--6CCZ1OBjoR3TniN-78" style="edgeStyle=orthogonalEdgeStyle;rounded=0;orthogonalLoop=1;jettySize=auto;html=1;fontFamily=Courier New;fontSize=20;startArrow=none;entryX=0;entryY=0.5;entryDx=0;entryDy=0;" edge="1" parent="1" source="_rh--6CCZ1OBjoR3TniN-79" target="_rh--6CCZ1OBjoR3TniN-81">
          <mxGeometry relative="1" as="geometry">
            <mxPoint x="-620" y="-140" as="targetPoint" />
            <Array as="points">
              <mxPoint x="-790" y="-130" />
            </Array>
          </mxGeometry>
        </mxCell>
        <mxCell id="_rh--6CCZ1OBjoR3TniN-75" value="UCM" style="ellipse;shape=cloud;whiteSpace=wrap;html=1;fontFamily=Courier New;fontSize=20;fillColor=#ffe6cc;strokeColor=#d79b00;" vertex="1" parent="1">
          <mxGeometry x="-1060" y="35" width="120" height="80" as="geometry" />
        </mxCell>
        <mxCell id="_rh--6CCZ1OBjoR3TniN-79" value="CallBACK" style="text;html=1;strokeColor=none;fillColor=none;align=center;verticalAlign=middle;whiteSpace=wrap;rounded=0;fontFamily=Courier New;fontSize=20;" vertex="1" parent="1">
          <mxGeometry x="-840" y="-30" width="100" height="30" as="geometry" />
        </mxCell>
        <mxCell id="_rh--6CCZ1OBjoR3TniN-80" value="" style="edgeStyle=orthogonalEdgeStyle;rounded=0;orthogonalLoop=1;jettySize=auto;html=1;fontFamily=Courier New;fontSize=20;endArrow=none;entryX=0;entryY=0.25;entryDx=0;entryDy=0;" edge="1" parent="1" source="_rh--6CCZ1OBjoR3TniN-75" target="_rh--6CCZ1OBjoR3TniN-79">
          <mxGeometry relative="1" as="geometry">
            <mxPoint x="-620" y="-140" as="targetPoint" />
            <mxPoint x="-1000" y="35" as="sourcePoint" />
            <Array as="points">
              <mxPoint x="-1000" y="-15" />
              <mxPoint x="-840" y="-15" />
            </Array>
          </mxGeometry>
        </mxCell>
        <mxCell id="_rh--6CCZ1OBjoR3TniN-83" style="edgeStyle=orthogonalEdgeStyle;rounded=0;orthogonalLoop=1;jettySize=auto;html=1;fontFamily=Courier New;fontSize=20;entryX=0;entryY=0.25;entryDx=0;entryDy=0;" edge="1" parent="1" source="_rh--6CCZ1OBjoR3TniN-81" target="_rh--6CCZ1OBjoR3TniN-8">
          <mxGeometry relative="1" as="geometry">
            <mxPoint x="-170" y="270" as="targetPoint" />
            <Array as="points">
              <mxPoint x="-310" y="-130" />
              <mxPoint x="-310" y="240" />
              <mxPoint x="-170" y="240" />
              <mxPoint x="-170" y="258" />
            </Array>
          </mxGeometry>
        </mxCell>
        <mxCell id="_rh--6CCZ1OBjoR3TniN-81" value="&lt;div&gt;10&lt;/div&gt;&lt;div&gt;Bulk Extract&lt;br&gt;&lt;/div&gt;" style="shape=step;perimeter=stepPerimeter;whiteSpace=wrap;html=1;fixedSize=1;fontFamily=Courier New;fontSize=20;" vertex="1" parent="1">
          <mxGeometry x="-610" y="-170" width="190" height="80" as="geometry" />
        </mxCell>
        <mxCell id="_rh--6CCZ1OBjoR3TniN-82" value="Export to UCM" style="text;html=1;strokeColor=none;fillColor=none;align=center;verticalAlign=middle;whiteSpace=wrap;rounded=0;fontFamily=Courier New;fontSize=20;" vertex="1" parent="1">
          <mxGeometry x="-840" y="50" width="100" height="30" as="geometry" />
        </mxCell>
        <mxCell id="_rh--6CCZ1OBjoR3TniN-86" value="" style="html=1;verticalLabelPosition=bottom;align=center;labelBackgroundColor=#ffffff;verticalAlign=top;strokeWidth=2;strokeColor=#0080F0;shadow=0;dashed=0;shape=mxgraph.ios7.icons.gauge;fontFamily=Courier New;fontSize=20;" vertex="1" parent="1">
          <mxGeometry x="-122" y="435" width="32.4" height="31.5" as="geometry" />
        </mxCell>
        <mxCell id="_rh--6CCZ1OBjoR3TniN-89" value="" style="html=1;verticalLabelPosition=bottom;align=center;labelBackgroundColor=#ffffff;verticalAlign=top;strokeWidth=2;strokeColor=#0080F0;shadow=0;dashed=0;shape=mxgraph.ios7.icons.mail;fontFamily=Courier New;fontSize=20;" vertex="1" parent="1">
          <mxGeometry x="-780" y="870" width="30" height="16.5" as="geometry" />
        </mxCell>
        <mxCell id="_rh--6CCZ1OBjoR3TniN-91" value="Inv" style="text;html=1;strokeColor=none;fillColor=none;align=center;verticalAlign=middle;whiteSpace=wrap;rounded=0;fontFamily=Courier New;fontSize=20;" vertex="1" parent="1">
          <mxGeometry x="-922" y="287" width="80" height="30" as="geometry" />
        </mxCell>
        <mxCell id="_rh--6CCZ1OBjoR3TniN-92" value="CM/DM" style="text;html=1;strokeColor=none;fillColor=none;align=center;verticalAlign=middle;whiteSpace=wrap;rounded=0;fontFamily=Courier New;fontSize=20;" vertex="1" parent="1">
          <mxGeometry x="-970" y="460" width="80" height="30" as="geometry" />
        </mxCell>
        <mxCell id="_rh--6CCZ1OBjoR3TniN-97" value="" style="shape=image;verticalLabelPosition=bottom;labelBackgroundColor=#ffffff;verticalAlign=top;aspect=fixed;imageAspect=0;image=data:image/png,iVBORw0KGgoAAAANSUhEUgAAAcYAAAD3CAYAAACHM/SVAAAgAElEQVR4nO2dva7ruNWGfUuDwMXcSJoUquYippvGbfoDx4iRVK7T5AJS7tIYzAUE6XwHH6Cv2JbFn/VDUrItS88GHuAc2xLJRYovF0lx7f73v//1A//4xz/68P9bB3sAAKwbqZ/fhf/5+9///vZMLgnsAQCwbqR+PhLGv/3tb2/P5JLAHgAA60bq53fn87k/nU798Xjsf/z4AQAAsGkij/HHjx/9//33dwAAgE2w2+3yzxBGAADYKggjAABAAMIIAAAQgDACAAAEIIyb50f/y27X73Z/7v/19rwAALyfemH8z6/9z7tdv7vz82//fnsh3ketqPy7/+uf3ilCUvrPFMYhvfT+77YDAIBOnTAOovinX/s//vt7/93BbblzW4MwviK9dBD1bjsAAOjUCeM///zdyf1Fm16NO8Ld7qf+r/8Jvg+9zT/92v/rt5/G3wzfPe493Cu8h3X/b5H6+bcf0W9++aeSfvSdk2+VVBitPKRppAMMI/3B7um19/L8/NuvcT6S338Lkpa+5UU22jltD3/66W73IQ0hTTHPY51J6f3rL1r6rfUJANDqMUad+kDe2X13XLFoPK57dISlwlh4/0cnKYvWmO8f/S+KMMT3tVDSUPMgiZCT/kMY/p3/NqiPhzD859f+50xwa9LX8jzUg1dGoU08BkFGObQ8P8qYtJPHvXwbl9cnAMAMa4wPocmE7feH+P3yz/Hf+XRaoTB698+Eb+gQ79dn6SflUe9r4YlvkgdJmIrsNno8f/z2Uy4a2SBlxE0//Uyw0x+RqHllDBmF8Y/IVvZUanQ/cfpeEr7SdgIAYNO+KzUduUvTfYFnEXeuv/fVwujc3+uwh/SzztG9r8UMwuilL3mM1mDkkaY0legLY15Pvydi2SqM4X1+KOIm5LlWGCfVJwDA1Nc1wjVHzSNLfjtVGPVdsGXCmF3v3tdiPmFU00899FCABGFMBwBzeoxFnnmU/0QYg7R+CaY3zTw3CuO2d0sDwBSqhPGP336KOpxhlO+vNf2ed3DpGmN6vfd9htNhZx3ssMY45XWFWmGURMRO/49wg5Jm00wYU5tZ6StrjKoQTRHG3xOhD4VRyXOtMPJeJgBMpNJjzHc2xtNT6W5GY9rwL7/mu07D79Ndq+79CzrsqFMuva9FvTDKG5gKyiV9J06lxr//5S9/dtI31j1FW0wUxv/+HkybymWM8lwtjFPqEwDgrSffSK9jQIoqrOorMwAAMAWEcdEYm3UQRgCAp4AwLh5hWhBRBAB4Gm8URgAAgOUhCuP5fO5Pp1N/PB77Hz9+JJsYAAAA1k0mjKnHeLvdAAAANsFut+vTP4QRAAA2C8IIAAAQgDACAAAEIIwAAAABCCMAAEBAkzB+Hfb9brfr94evtxfg3Vy6Xb/rLvH/Bdt8Hfb33136Tt0i3PUXz8Zfh34fXNNdptbNV3/Y6/mQvy+7f2qbp9fD/tB/vbwNWPbxbDu2F+17L920/m+XLrCDn36aj+x+ABukUhi/O/X94dIf9gjj7SYL436/zzqgURiD678O/X637w9f4T0tGw/f3T+7dP3ucX1r3Xwlv793po+8Kh1wg23WiWWf1LZKewm+/x7YlIhjuTBa6Y/tat93ndBGATZI41Rq/sBtFbmjuyTiUiOMho0vnejNxZ1jbd3kv/867LPOdbowDvcJPeax7HmHrQi25XmF16uetX2fweNO8+fZr1QYY+HKhXEY4Pj2bhPGNP3os69Dvy/2WAHWC8I4EdUDSERvDmGMBUurh6nCKP9/LmFUxTAV/cg2qRebe1ZxWolnfbv03d1uaX1FNm0ShhphzMuRCaPZJgrSNYUxTz/OA881wO2GME7GmhoL172eI4ySx9EmjPE6VJin8nUq2zZCRx514rGn5AvW9/Rfkcia9g7uc/cy6wYBln3y79J6SeuvfK20bY1RXrNOBnBvWasFWA4I40TsNaPRc/kcj/GWrF3OPZV6i9NJphW/f5/8VhS6+DeZMEqdezK9Kg4Egt+U2bDCYxTKkW2+KRalBo9RSD9rU8UeK8B6QRgn4m2mGDqjwwetMcbe2+uE8eEZph7irB5j6VTpxLU+0bbyZpi250iuZ2l92Jsml3ZI82zDlkEYJ+IKY9j5TBXGtLM2PKlP9BgfedmngwhljVH0Nkc75WuMNbYpLXfD5ptkbbT1Ocp3sKZi7qQf1bN1X4Bt0fS6BqPLEV8Yb+P0XMXrGqqNo+nA8NrWupG9Bn0XZ+t7jCXCOO4KzYUmKZ+w1qrvSnXWTId7Xbr486JXF/z3GK3BzRRhDO0l14udvv46Tam3DLBOOPkGAAAgAGEEAAAIQBhXj3UE3ZRpvGfdd2m8q5xbsS/A8kAYAQAAAkRhPJ/P/el06o/HI8IIAACbYrfb9dfrNQKPEQAANgtTqQAAAAEIIwAAQADCCAAAEIAwAgAABCCMAPDBtJ/lC6BRLYzp2Yxbb5DSWanSC9hj2Cnrxe3x4ObBzuq5q4r91etUSsIXPcFmSrmXTnm8xHnb1RrKlOOd01t+D+uatHxiCLjKPIZn4Vptub2tt8Xb1O4/5GPr/XUpdcL4dej3aQP7oE7tGYiHiO9zu5THYxwiQ1zUA6Dj+HrD9dZ1Fu8RxizO5Mbbkdeu1okW/WOG9mvQIoyl0VO8oALlbb0h3qbabr5DtHVdTbm3zbSpVIKaKg/CRQ6TtOB4jPYDeI99eOjiUanjvVo20yNOKGllo+Okc1HzYl8Xz4AkkeyFz+WIIeEsQFKfacSOwqgdNenknaEXd1HwatTIJNNt6bW9rK0q7VxO16+DNAB23dF6DWHFknBoZui4Sc+ln370WVU80m0zTRi1gLAbQh0hJqI3hzBm0dbFjuVZwph2SEOMQy1vts2i/EV2kNJS4jE+fqPFX8zrJ8qn1lEYHYgkWLpIxcGUazyVqnTS5zCyp2e70liWjbYsaHt5W81Dc+mxOHPb2OV7pseY29pu61OfSz/9OA/E0S1lgjBi5NvNnjoJ1zaeI4x6YORnCKM5yq3oGNM8x2tAQlrivQPR0QZo6lT1/bO7Z5SVS/s8q28nxmSa74rp6bpYlrHNfMGKBdsU2am2LGh7pjB66Yrt1yif9iw6eZTX8XwP1G7rU5/LAg9YGqC/ZT35s2gWxvct2C8Le01hHH2vwWPUNvrUbizINiREZRLSEjvrIN+a4CRTguI0X/CbfGSff14vWNaUZ2m78oM8p9OFj996tkvTeoYtnbbnC6OVriaMjsf5DI9RsLXd1qc+l376WZ/B8lcRTcKIKCa2sKZO7o31sPA1RnEXrSWM4vRdm8cYM7fHWDq9p3nFVidb4jHWDxyq0wnLmpZ5Vo9xqi3L2l6UBzfd13iMNVOp6UCqbVat5Ln00pd31BK2zKdSGO+GRhQfuMIYNs6pwph2OIY3UNPw851yacfmC+P3yPhJwqitkyXCna+L1dhC6wAN78oTrEvXvAuwWhiHsu7TTt+zXeka4xy2LGjj98GEJTbSPbI1RrV8tdOJDZtvkueiVYT859JJP9q1bt0XUuqEUdphV7jLbq34wngbPYeK1zXUEV7khYTXOtc5pNOiJTvpwmmi/eHQd08TRqF8acem2kUYNYfCJbVj7fOsvgunOBum0uqFcazDWtvZu1In2tJE8mikgaKR7u2rP+z3/eES5rl8123prlT5ufIHr1OE0X8u7fT1qftSj367TNuVCgAqZZulAGBpIIwAT8J/vxAAlgjCuHqsI+ie0Um/Or0lo22n34qNPqGc78rjJ9hmuyCMAAAAAaIwns/n/nQ69cfjEWEEAIBNsdvt+uv1GoHHCAAAm4WpVAAAgACEEQAAIABhBAAACEAYAQAAAhBGWDD10dkXSUW4KQB4P9XCGJ/dx0G00lmp0gu644n+1ou9oz0HO6vnrt7RQkHVRtfQ8mGfFVl737Z4fdY1aaSXusgJsk1nFzHp/NTmPPtnd+p1KZzdWvwMt8UH1O4/5OPjBz2wSiqFMY7aXhNfbq2Ih4jv89Pry+MxDtENLuoBwXH8teF66zoLLwp4q9emnfw/Q6xIg2phFCIQfB3285484niMzwuD5B9yXx5poSWivNZHfIeF6rqGQQzAC5g0lUo0aK3jucihfj4kHqMU820WYTTKYHmr3SX0smN7pQF667xaL8rAPa7foUvyZuX5lkenONhBhVs88aowSEnaJZFTitN1hFEcFAyfVcV4BHgdE4Qxjdu2TdQReSJ6cwhjPhCRxGeqMMr/n00YS6KrZ1NziR3TOJCtQWjdjnkQZDuMkR089n4PLz7gEwPnmmHRiiO6twhjnn6cBw5Vh2VSL4xh3DWmQcypqnAt6TnCqAdGnrbG6MTgq5h6M4VRnUoePntydHYtWr2UV7POgjxJYiutMU4URrk+fA80bS/peqeXbu0ao7xGrgcVBlgC06dSNz4VYq/hjF7153iMt2Td7YkeY7rpJRNmTRgdj/PpwmjkWbrnE4SxyGMU8tIaOLnJYxTSz9pwsccK8Dqmva5Bo3Y3Nwydw+GD1hhjQXjiGqM7lflkj7FojVESRiPPL/IYa6ZSUw+xbepSrk97GlmZWiXMEiycOmH8OvT79IHGY7SFMewMpgpj2lGLHs+CPca7t2V13NI9sjVGT2Qqpua+27C2K1USTi/Pydr74GHOlueGzTfJmmyrCOXPe2ofJ31hB7B8X4D3UukxpiO+bXuLt1uJMN7GzrHidQ11RJ3uePwqvE7Fe99wzvcYpfYi/C7yQPb94RKW2d4IE9qnVADid3PD9DWP0spzWkddf/k69HvrNaeqPPvvMVqDqSnCKNnKn8Yf09df7yrdGQvwGqZNpQIAAKwMhBEAACAAYVw91hF0U6bVnnXfTyj7GvP8ibYCeA4IIwAAQIAojOfzuT+dTv3xeEQYAQBgU+x2u/56vUbgMQIAwGZhKhUAACAAYQQAAAhAGAEAAAIQRgAAgACEEWAztJ57uzCk4McAM9IsjEP4mq2/+CudlSrZZYygYL1IPZ4DOpxJqZ67mp1p6lyn0hZnTzv0eSh/beebhUP6oEOly2MaTsE703ZCXRtlqYv8IbfR2W0jRStpzrN/9qzVLtvb7TKeO5BpE8ZL1+/2Xd8RfVs+RHyfRwsoj8c4RGe4qAcyx/Huhuut6yxaIrNrB0J/h4TquvrOND3cmogLcj3lkStmqGuDamEUImiM0UpmsoXjMT4vjJcfNKC83S7juQOZBmEcKrQ2vNE6kR+Ub3FyY+4tKB5j7QMqdk7DZ26cRdmOelSIewzGQ5eMmtMRdZKm6l3b18URJJKQV8LncRsY7BnODCR1fOn61EPxO7SC+JZu2fy8jWXJvRW/TZXEt5xaj/frxWglLXluCOOVpG2Ghlv4cwcy1cI4dvAI4+1mjCAT0ZtDGPO4fVIdvEIYvzLhj8re0DayDiayzdCRCwKgxgdNvOvbpe/u5THjIWqdi9HpSMKoC2ccaLncu9FsmoeV0mM9KvEtk3iNzUGU3Y5ZqseyPEf1mEzPvjrwsxlmrjh4+zKeO5CpE8ao4VMJt5s9tRKufTxHGPXAyM9eY5TXPvWAwiV2zKaMrLiIYicciI4YxFmzeXDd3TvJ7KF9nrUBwZ6hLdN8F28kKRBGr2xiXcdCPUlkNJtLea2qj+Se0hrjRGGU1/H8dm+32+U/dyBTIYxpRSKMt5u35jB6LavyGIUOMMtb8cg5sKO6YUPoUMVOOCiLJjjpxhBpSlELHKx8XiWMjhB59eQLo1U2TRgdj/PpwmjkWbrnE4SxyGMU8mK32+U/dyBTIYzGbsoNj1C8xfihMR8WvsYo7qJ1pnSyKR6hbZTmw44sP7fHWLoOo60XWWJS4jEa62mV9RSV0y3bkz3GojXGknp0vn+XMCqbYdqcg2U8dyAz4T1GPMbbrUAYw8Y7VRjTjsXwmmrqJd9Jl3ZgjkgLOxHl+9p2rBJGbY0xmX7N1xhr7KN1mvHnVcJ46Rp3Dgr5vous1XFL98jWGD2RqRj4fte5titVr0ev7h/fDwOL2fLcsPkmWZNt7QOX8NyBDMI4EV8Yb+PDXPG6hjoCTHfofRVe5xDvuCyZnh0fYn06sHSHXoswCmVOO0PVVsJIOxSu8POhXNrnWRvwplJbp98k70AaVBllu331h/2+P1xCu9gbYdRp5Yq2ZK4Vu3lO67HrL1+Hfm8IY12e/fcYrcHpFGFcwnMHMhOEEQBqKdtABQDvBGEEeCH5KJ+ZF4ClgTCuHusIuld1yEvIw1LQtuB/go0+IY9LyfMn2goGEEYAAIAAURjP53N/Op364/GIMAIAwKbY7Xb99XqNwGMEAIDNwlQqAABAAMIIAAAQgDACAAAEIIwAAAABCCM0UB8J3qU4/NI35VEpFkpleQHgdVQKo3Cu4Cd3TjMgnZUqvcA7nvhvvfg7nls5nKGonrt6JxUn9TqL5BzQ5ujjU1iaMKZRMOYWMen81OD/eYSI8dkT7T7UIWILMJkmYeRw2hHxEPF9frp9eTzGIZrART1AOI7PFke5l68zyALwjpHu9etWLoxC1IIxQsRryqsJ434vR464dLu+6/BCAeYAYZyIHF3jIodEWmI8Ri+wqeihDumG3m96j3R2IQmDk0a+OOQBWt0IFUpEhV0q9MP9pXxklMQUlO43pbxhebQj40KbJ7YeYhZmYmvl6R5p4yusw66/RNdU1inASpg4lUqkaDXsVCI4cwhjHplBEsG2QMVyXdoxDXdGgFs7Rl6ax3vn3CyMsZcrxWUs7sTdYL/y/aaVtyTY7miTNBrH47clAXyTPEnCPthd/H16P8QRVsikzTc8GHY8xnDd6DnCqAdGrp32G2MEBvkRAyGPadhR6qUp4vtnblT2Bo8xs+tw/8rYdGqZw3JIUeinlLdOGOM8BunU1IFg4yzNMB1xwCB4rwArYOKuVAJi2oGKR49ruR5jTBSBXV0HKxFGaXNRcN+ZhTELjvtyYZxS3kphDPMQ3qemDmqFUbQLSyuwTqYJo7c+tQFsYbw9OpTDUtcYlXRzz0T5TZi3qFM2xGVujzHN5xSPsWiNURLGKeWtFcbx+6i91dQBHiOASpUwXrr4IUi3mG8RVxjDddmpwph2ysYovlQYs92W4k5XeY1RFy4vD8l9B+9GEwrv+8QO39PCrcKYeM2ZnaT7zVzemz478Ej34REG9V9VB5XCqK0xbvz5h3VS5zEm77vxUJQI423sxCpe11ADm6a7G78Kr1NxNlSJ6fkenfjOa/h9dN+uv3wd+n10fbJb0vGwxjXSXb8/HPpugjDebsLUbLKZJ7/ftPJau2zjXalJeqmQFddBrTAKbYznH1YKJ98AAAAEIIwAAAABCOPqsY6gm7JJ51PBHgBggzACAAAEiMJ4Pp/70+nUH49HhBEAADbFbrfrr9drBB4jAABsFqZSAQAAAhBGAACAAIQRAAAgAGEEAAAIQBihgSdEVXAi2qeYYacAACbQJIzxOZLbPl1fO7MzfVF8PIfSesF8PJdysLF67uouDiqb1k3Vi+rJGbi+4K1ZGIXzRTcUc/Q1gQEkG8dnwlr2D8/Frasfpd0Kh6+X3H/IB2G31ke1MHKifox4iPg+D+BcHo9xiMRwUaNrRGGGskgY0nUGd6EdH+4hgoZ13fqFMbQf3ulzbCy3H9/+6UH95QHTy4XRr//vkFtdJzzX8PFUCiPx11Lkh/Yih+hZYjxGL6am6KEO6Ybeb3qPdOSddFxp1I7DtEDFuid9b7OHrtC7UOxuRq1I62TfH74022j5qbGXEGVDuU6b3dE+j+1aUM9pxJ1dySCiThilujfDsdWm64XrkgZtw2du3Ev4ROqE8d6J7vc1D8G6UUezieDMIYxajD4p/mP5VOrQsUr5sOMx6h2qF18wzeO9420WxtjLjdMaOvW66bYxb3l4p5Ky5SIUh8GSBjjZPZNr8npw8qJ12kZnLgmjXs/xQFls44aNy4RRtn/UvosDprcIoxDeK8rD1MDgsEQa4jEGDTCbhtse1jRPuF7zHGHUAyPXPqjjuk2QHzEQ8piGKlzqFPH9MzeifYPHmNm1NR5jvsbkd8KhQEidb/i9kB9RqIJrtHoosrNQduO5lT1Gq561QMl1NtY957wtp22+fF20bY1RXudPBgQsL62KBmHMR7pbHi3Z6x/jSH+5HmNMFL1e7ehKOkxpc5HR0U8Uxiyw8ERhjNdxg7x6ZVOFcfhMyI8ofMF9tHpw83ITAh7bn1cJY+Ixlq/FVniMgm2yzTfFotTgMQrpZ89hsccKn0LTVOrYABBGb2PA8GAdlrrGqKT76JCbPUZj6nJuj1EUr5mEMf2/u6b0ao+xdIpYs0P8eb3HOOPu0BL7S89YZdsWd4w7U6nZ1KowINlyP7g2KjffSKOpbY+UXGEMH6Spwph2boanUfqQfh32gvimO13lNUZduLw8JPcdOlhN+LzvEzt8exRzCWN6f69syhpjsuYpDWb0dUu7HsrqWhOj+PMqYbx0jXsMGjbfJPU7bUYkfGbS+nDSV/q88p2x8AnUv8fovEe3NXxhDGxW8bqGOhpNd3N+FV6nko6Ak/yI6fkenTiyzqafAk/j69Dvo+vD8nT9xZlKDafX9odD380pjErnKZdN2slpdcRK/aXTg2q9G3lJd4xGAwnh88yuhZ579bSm/x6jZf8pwni75dPu/lLEmL4+XVzbzmDJ1AsjABg84R3PhVK2GQzg80AYAWZlO8KYe0/sOYB1gDCuHusIui12Ys+2x3aEUX+14V1tjrYO84AwAgAABIjCeD6f+9Pp1B+PR4QRAAA2xW6366/XawQeIwAAbBamUgEAAAIQRgAAgACEEQAAIABhBAAACEAYAQCexpbea10PDWGnpJdnt3t4rnZmp3iCf3fp7ZeQRzsO5zmq564qZ9Wq16lYsfHKKA9Q20JJqKAn1OmHtu/y2IQzpPOiIOWvKlOOfKZrncj5wpiWr+558s+dtdpye1tvi22p3X/Ix1IGEJM9xlc+IEtEPER8n5+0Xx6PcYikcFEPM5ajm1jXWchhfWrqdI3CmMXB/CBxfAXbeO61SBv1z1dNh98ijKWRSrygB+VtvSG2pdpuvkOsdd0z+5E6pgkjATqVhnaRwwgtMh6jko4ZKcOLtn6PJXjoHr/vms/VLHkA8/QuD/vWj/Tzg7DTQMNCWqqNwrqW8mJfF0eCSEJZCZ/L0THCWYqkvUmzQAWdU006/pmqtg2y62e2ZdWzYTyHcrp+HYzl056nhuej8Nm22/rU57Kkbwk+q4ov+lwmCeM2Ro026ggsEb05hDGPZiA9uFOFMY8NmJYxzUdetqETCBq5GEy4vHPyhTHtkIaYhZrt7DrNo93HnrnYMaY2SkJf5fEUHdtqHYXRgUiCpYtUGEC5zlOpSsese892Up5ntGXVsxG3bzmGpRz4OB/UaOV7pscoP9t6W5/6XPrpx3lYziH0E4SR+GNDpWoNLVw7eI4w6oGRp6wx+g+K16FKbSP+rPzhLxdGsy1WdIypTeM1ICEt8d6BjcSA0gW2vXtGWbm0z7P26MRTTPNdMT1dF7dRqHtTsOL2ZYrsVFsWtD1TGN3nQ2q/Rvmqno3x/vI6nu+B2m196nNZ4AFLDsRb1pNjmoVxKQV4N/ac/Ti6/RiPURzd54v72QjYFcbwdzXrLu3CmAakLV0ntIPvCmmJnXWQb01wCmwb/iYfsOSf1wuWNeVZ2u4LAxpLde/ZLk3rGbYsfTakNuCmqwmj43E+w2MUbN0WaLr0ufTTz/q0hSzPNQoj3mLUsKypiXtjOHzMGmPy/wJPq1QYH/eqmtaSyxM/UAViNcFjjJnbYyy1g/bMWZ1sicdYP3CoTseq+1k9xqm2LGt7UR7cdF/jMdZMpaYDqbapy5Ln0ktf3lFbt7npOTQJI7v0RlxhDCt/qjCmD7Qx2p68+SaZjrHul3uyWsdj2MIgb2/p/X1h/B4ZP0kYtXWyRLjzdbGautI6QMO78gTr0jXvEagWxqGs+7TT92xXusY4hy0Lno37YMISG7nN69OF3hp+e1n8wXW7MJY8l0760a56676vp0EY04a5bXxhvI0j84rXNdQRVDTKD691rlMpEGBpZJd5A2F6+oh8mN6snW1Ip0VLdtKF00T7w6HvniaMgv3Tjk2tN8O26Y7RyGsSPs/aY+EUZ8NUWr0wWnVv287elTrRlgXPhjo1a/0u8pr2/eES5rl8123p8ys/9/6zPUUY/efSTl+fun//jOSkXakA1WhTYfByyjZzAWwPhBFeCq/4LAf//UKAbYIwrh7rCLpXd4L6axyvy9+S7PFurAMatmCjTyjnu/L4CbZ5HggjAABAgCiM5/O5P51O/fF4RBgBAGBT7Ha7/nq9RuAxAgDAZmEqFQAAIABhBAAACEAYAQAAAhBGAACAAIQRAAAgoF4YkzMH1/6ip4d0Vqpkl/HEfOvF2fGotOEMQvXc1TtaqKWaesnOy5zhnMLyuG4z1YFix6XzGju1xc7T7DjYuyW2oXWmp5X2J9cxfB6VwhiHS1lK7Kx3Ih4ivs9Phy+Pxzgc0n5RD+CN45vFkeXl6/wyfPIAJ83/Ek7nXxYt0da14/u++4CuqwmNZOShMG3qGF5JnTBmsccSodwg8gN8kUPpLDIeoyWMftSE+HR9K+ht6hVI5Qi96fJ2lec/PHru3kYPXZKulZ+b4Znb12n2KLNTgR3SKBG7krNn24RRDAo8fFYV/9DIQ2Hadh0DzEv1VOoY144Dhx/2kEa2iejNIYx5NASpDl4ojEbnKHX42UAhE6n2aPJ5zLzYk5aEWM+PFvPPiZ2n2aPWTqod4oFoeUDbFmHMbRTbui3uZ01AXTOcG7NV8ESaNt885vtftIa0ZKwpn3D96DnCqAdGnrbGGAuWFwFe6uwiu7hR2svi+Vn5z6bhkiDB0b29/JhR4qWp7/tnmj1K7VQ7ECm2Udsao7y+rQfcLcmD1c6stC2JrxgAAApSSURBVO06BpiXhjXG8QH7HmVve9Rmr4WMnscqPcZHGfLOLLKLKDThvacLY9ThRtcJwujlR0s7mV6VpkbVILMldnLtEHuM5V51g8co2Chrf1VeW4XHKKTdGlAZoIUqYSzrmLeFt0lgeMgPK11jHMkjg7/LY7TyVZQf02MsXVfT1sAMOxV66PU7M+U2ET/P8nRmNr0pDAzK2lr9VGo6gNhyPwOvpc5jTDsMY4poK7jCGHYoU4Ux7WwNz2euXam5wGmj9bjjK1pjTDrllwmjmx9tjbHGtpoQ+HZS7XDpmoM857s4U7s4A7FoB7R131p7FKTt1jHAvDRuvqkdLa4XXxhvo6BUvK6hjsojryG81rnOKYMnLA8PJe2old2R+TRfkj9h5uF1wujlx7Kz4Dl59ii2k2+HKVOK8c7Ykin40Xb6tG3p7lD/PUZrEIgwwitp2nwDAK+nbPMVAEwFYQT4ELR3QxFGgHlBGFePdQTdJ3Sqn57/OdFea1iCjZaQB4B5QBgBAAACRGE8n8/96XTqj8cjwggAAJtit9v11+s1Ao8RAAA2C1OpAAAAAQgjAABAAMIIAAAQgDACAAAEIIwAMJma+JkAS6deGKNzH7cdcup2k89KlV5oHsNOWS9Cj4cmD+daqueu3knPqFSvU7Hi5Gnft8V79A7UjtrY/tB/FdpKCgdVnb8XdeqzxhFMy/3GUEy1NiwPsgzwehqiawRiqIXn2RDiIeL7POJAeTzGIbLDRT1YOY5bF0eql6+z8KKnW1ERSvgO59R1UkdYEifQstXtMVDLw0qV2+AjvR0h2sXXYf+2E2YQRlgTE+MxxoFTt4gcXeMihzVaZDxGLyDyRGEcRE6MZThVGI2yVgza5AgXobdqBQf24hYKAXfD69UZAOs+JREtrOu/+sN+3x++ksgp0TVpRJH093FdaHbJ09eOtfNtB/AqGjzG2gd03ahhp5KOfA5hLAsUPVUY5f+31vEY/UHPa7MwmvYrH7SJsSM1MRRjksYBl7MBURJXcPxei/uYt6uo7t2AyV4+hjLmYjXUhTQ42qXtWS2Xk3/lefCuAXgV1WuMcTy4fb+fNM32+VjxGMP1pOcIox4YedoaoxN/sHQkLw0OvDiMt1ulMGp5KR+01cVEjO/rC1Ys0KbImu0iuI/nDbv5yMuYtc8oDamejHJ5+ZfSK7gG4FVM3JWKx2gHKh49gs/xGG/J+lW7x5jlNyvvcj1GN1hwd8l/KwpW/JtMGCWPSNhMFA1YPGF08zGXMCrl8vIvpVdwDcCrmCaMbL5xhHG00eGD1hjjTq9VGOXdrNKakriDt2iN0RiYTV5jTO6VCXzXX1LPbFaP0cq7MyBdhMdo214Wxm33JbAcJghjuj6yTVxhDAViqjCmHaLhGbzdYxR2Td5u+dpU+n+101ds9X295Em27kotEMbBZvt0sKOs7Yne5ljWfI3Rr0Op3OOuVC8fbcKYeXxquQrz785+ALyHOmFMpjtoxCXCGNit4nUN1cuK6iC81rlORfbs9N2RZffVt+/nwje8e2ne2xpERO/W1k+/1QvjmOd8wJDUg7AmrE8hOmu7Sh7k7618tHqM6S5Wq76d/Afl1nel5mUGeAUT1xgBYP1MfZcV4LNAGAHAAWGEbYEwrh7rWLUp0+HPuu+nlH9LIIywLRBGAACAAFEYz+dzfzqd+uPxiDACAMCm2O12/fV6jcBjBACAzcJUKgAAQADCCAAAEIAwAgAABCCMAAAAAQgjfDxeLMD54b0+gDXTJIzDGY3qmaDZeZvbQOygBTuN51JaL5+nB23X21u9TsU6F9WPyxjH6sy/d0lDDxWek2kL44R4ko6dtta+AbZCpTAO0QAuauSHx2dKdIU1Ix4ovk+jR9QELW61t3WdhdXh59EPvAPU88gZBkJ7GaNF1Ntdj/SQR56oB2EEWDONU6mtsQLXjSwUFzkE0IJjM5YKoxTA1wyTpVLwO8M7rhNGLYCy4nmL30kBirc1CARYM7MJI/HVDA8qEb05hLHM3s8UxtzzyoTRLFNadicwb1BWOxZgmceYx0CU7m3HS+wuN0QRYIU8URiV2IQrxppavHTjmtlzhFEPkjxtjTENVqsfwJ2mH5bZTFeLZK+RCGn9GqMhZOG91XzdhfFQKPwA8FHgMc6IveY2eh+r8BgF0cg235QGmS0Qxiwob6Uw5tPQiQcv3VsIUBzesyUoMgAsH9YYZ8TbjDLY6LCKNUZ5M07bQMhZY0zL2uAxqmuf1r09j/Eie+4A8NnMJ4xp51Y7PbYCXGEMPY2pwlhk7xdsvkkEqnWG4NtrU3alCunM5jGa9y5YY5xllysALImm1zXUYK/RDr7tTTH5whjYqOJ1jXp7O9ep+O8xWuI8dU05m9JMN9g88nPou0lrjMKuVuXeso3TAUQqoADwyXDyDQAAQADCCAAAEIAwbgrrCLpnTgW+K10AgHoQRgAAgABRGM/nc386nfrj8YgwAgDAptjtdv31eo3AYwQAgM3CVCoAAEAAwggAABCAMAIAAAQgjAAAAAEII7yY4Ig2Dt8GgAXSJIzDmZbSi9nWd2tEPKdTKP8Yasp62X08o1O1oxVtvtH+fp7L7iP9PovJqIWrmiiSRWk/k0unnsX6lDbHoALgaTQdIr4/XNQDpeXv1ot4cPh+n3X+5TEYS2wcxkQcrm+3f1WeDYp+r8Y4nEZtXmflPliJDhVHuAA+lhnDTpV8tz7kiBqXLBTRHMGJnxODsSbPaaSKIS95BIsh/dA+WfSM++epDVWvWPy8LG07/6EtQ4++MEKMWY9eupe+2+37w6F7fNcp+VbLpc4iWOkCgAbCOBE11FTSWc4hjHlQXMnWrcLo5TmPO/gtdMn0rzSdGX4meIzxb7QYiLEXltrCT9vL/yAiY/lzYdXIr7VsEOd9EOJAtMTgyVq+NHt56QKABsI4ESsGY7gW9Bxh1IMhNwmjlecwsv2Du7djiH+1MJYGuE7y46bt5l/wviunfce4jkGdqtPl8RR47PXHn6X1XmQvN10A0EAYJ2IHJx5H8x/hMVp5FjvgWExmE0ZFjLKp2BphdPM/XRjjfN7rNZnm3GXTtJIwhnnP81VkLzddANBAGCdiC+Pt0SEfFr/G6OT53R6jOL24LI8xrYPuoqWb5kHYxTpcJ1xf7jGypgjQAsI4EVcYww0QU4Ux7UQNL2iSMIp5VtbojHU/yT7Na4xJWb+nLRNhNO/r5b9dGL8Oe2FgEQuuXh+KMA7X7b3BhrbGuK3nEGBOml7XkAPNWt+9v6DPwhfG2zitVfG6hmrHaIosvLbd/uV5TtJIRSPIm7qD0hVGvYzjGt6u3x8OfZd5kN6uVCv/UzzGdPdnWqf5ztl084303uMwdaxPs9r2stMFAA1OvgEAAAhAGAEAAAIQxtVjHUG3/qlubAgAtSCMAAAAAaIwns/n/nQ69cfjsf/x44c6UgYAAFgj1+s1IvMY+Rv/rtfru7PAH3/88cffE/+kfh5hNP4QRv7444+/df8hjJV/CCN//PHH37r/pH7+/wHUGi4eB3eHegAAAABJRU5ErkJggg==;" vertex="1" parent="1">
          <mxGeometry x="-1630" y="613" width="490.76" height="267" as="geometry" />
        </mxCell>
      </root>
    </mxGraphModel>
  </diagram>
</mxfile>
